<mxfile host="app.diagrams.net" agent="Mozilla/5.0 (Windows NT 10.0; Win64; x64) AppleWebKit/537.36 (KHTML, like Gecko) Chrome/131.0.0.0 Safari/537.36" version="26.0.3">
  <diagram name="Page-1" id="s998OfCtN13yMkF6CkR0">
    <mxGraphModel dx="1687" dy="918" grid="1" gridSize="10" guides="1" tooltips="1" connect="1" arrows="1" fold="1" page="1" pageScale="1" pageWidth="827" pageHeight="1169" math="0" shadow="0">
      <root>
        <mxCell id="0" />
        <mxCell id="1" parent="0" />
        <mxCell id="R2a6Gr0WO1WaGBbOqRlQ-4" value="&lt;div style=&quot;padding: 0px 0px 150px 10px;&quot;&gt;&lt;font face=&quot;Times New Roman&quot;&gt;&lt;b&gt;ATORES&lt;/b&gt;&lt;/font&gt;&lt;/div&gt;" style="rounded=1;whiteSpace=wrap;html=1;fillColor=#ffe6cc;strokeColor=#d79b00;shadow=1;glass=0;sketch=1;curveFitting=1;jiggle=2;align=left;gradientColor=none;" vertex="1" parent="1">
          <mxGeometry x="130" y="40" width="380" height="180" as="geometry" />
        </mxCell>
        <mxCell id="R2a6Gr0WO1WaGBbOqRlQ-5" value="&lt;font style=&quot;font-size: 14px; color: rgb(255, 255, 255);&quot; face=&quot;Times New Roman&quot;&gt;&lt;b&gt;Administrador&lt;/b&gt;&lt;/font&gt;" style="rounded=1;whiteSpace=wrap;html=1;shadow=1;opacity=50;fillColor=#000000;strokeColor=#FFFFFF;strokeWidth=2;" vertex="1" parent="1">
          <mxGeometry x="160" y="110" width="140" height="80" as="geometry" />
        </mxCell>
        <mxCell id="R2a6Gr0WO1WaGBbOqRlQ-6" value="&lt;font style=&quot;font-size: 14px; color: rgb(255, 255, 255);&quot; face=&quot;Times New Roman&quot;&gt;&lt;b&gt;Sensor&lt;/b&gt;&lt;/font&gt;" style="rounded=1;whiteSpace=wrap;html=1;shadow=1;fillColor=light-dark(#0d0c0d, #392f3f);strokeColor=#FFFFFF;glass=0;fillStyle=auto;opacity=50;strokeWidth=2;shadowOpacity=25;" vertex="1" parent="1">
          <mxGeometry x="340" y="110" width="140" height="80" as="geometry" />
        </mxCell>
        <mxCell id="R2a6Gr0WO1WaGBbOqRlQ-8" value="&lt;font face=&quot;Times New Roman&quot; style=&quot;color: rgb(255, 255, 255); font-size: 14px;&quot;&gt;&lt;b style=&quot;&quot;&gt;Detectar&amp;nbsp;&lt;/b&gt;&lt;/font&gt;&lt;div&gt;&lt;font size=&quot;3&quot; face=&quot;Times New Roman&quot; style=&quot;color: rgb(255, 255, 255);&quot;&gt;&lt;b style=&quot;&quot;&gt;Presença&lt;/b&gt;&lt;/font&gt;&lt;/div&gt;" style="rhombus;whiteSpace=wrap;html=1;rounded=1;arcSize=24;shadow=1;opacity=50;fillColor=#000000;strokeColor=#FFFFFF;strokeWidth=2;" vertex="1" parent="1">
          <mxGeometry x="345" y="240" width="130" height="100" as="geometry" />
        </mxCell>
        <mxCell id="R2a6Gr0WO1WaGBbOqRlQ-11" value="&lt;div style=&quot;padding: 0px 0px 150px 10px;&quot;&gt;&lt;font face=&quot;Times New Roman&quot;&gt;&lt;b&gt;COMPONENTES&lt;/b&gt;&lt;/font&gt;&lt;/div&gt;" style="rounded=1;whiteSpace=wrap;html=1;fillColor=#ffe6cc;strokeColor=#d79b00;shadow=1;glass=0;sketch=1;curveFitting=1;jiggle=2;align=left;gradientColor=none;" vertex="1" parent="1">
          <mxGeometry x="130" y="410" width="560" height="210" as="geometry" />
        </mxCell>
        <mxCell id="R2a6Gr0WO1WaGBbOqRlQ-37" style="edgeStyle=orthogonalEdgeStyle;rounded=0;orthogonalLoop=1;jettySize=auto;html=1;entryX=1;entryY=0.5;entryDx=0;entryDy=0;exitX=0;exitY=0.75;exitDx=0;exitDy=0;" edge="1" parent="1" source="R2a6Gr0WO1WaGBbOqRlQ-12">
          <mxGeometry relative="1" as="geometry">
            <mxPoint x="190" y="610" as="sourcePoint" />
            <mxPoint x="740" y="100" as="targetPoint" />
            <Array as="points">
              <mxPoint x="140" y="550" />
              <mxPoint x="140" y="640" />
              <mxPoint x="760" y="640" />
              <mxPoint x="760" y="100" />
            </Array>
          </mxGeometry>
        </mxCell>
        <mxCell id="R2a6Gr0WO1WaGBbOqRlQ-12" value="&lt;font style=&quot;font-size: 14px; color: rgb(255, 255, 255);&quot; face=&quot;Times New Roman&quot;&gt;&lt;b&gt;Servidor&lt;/b&gt;&lt;/font&gt;&lt;span style=&quot;color: rgba(0, 0, 0, 0); font-family: monospace; font-size: 0px; text-align: start; text-wrap-mode: nowrap;&quot;&gt;%3CmxGraphModel%3E%3Croot%3E%3CmxCell%20id%3D%220%22%2F%3E%3CmxCell%20id%3D%221%22%20parent%3D%220%22%2F%3E%3CmxCell%20id%3D%222%22%20value%3D%22%26lt%3Bfont%20style%3D%26quot%3Bfont-size%3A%2014px%3B%20color%3A%20rgb(255%2C%20255%2C%20255)%3B%26quot%3B%20face%3D%26quot%3BTimes%20New%20Roman%26quot%3B%26gt%3B%26lt%3Bb%26gt%3BAdministrador%26lt%3B%2Fb%26gt%3B%26lt%3B%2Ffont%26gt%3B%22%20style%3D%22rounded%3D1%3BwhiteSpace%3Dwrap%3Bhtml%3D1%3Bshadow%3D1%3Bopacity%3D50%3BfillColor%3D%23000000%3BstrokeColor%3D%23FFFFFF%3BstrokeWidth%3D2%3B%22%20vertex%3D%221%22%20parent%3D%221%22%3E%3CmxGeometry%20x%3D%22220%22%20y%3D%22110%22%20width%3D%22140%22%20height%3D%2280%22%20as%3D%22geometry%22%2F%3E%3C%2FmxCell%3E%3C%2Froot%3E%3C%2FmxGraphModel%3E&lt;/span&gt;" style="rounded=1;whiteSpace=wrap;html=1;shadow=1;opacity=50;fillColor=#000000;strokeColor=#FFFFFF;strokeWidth=2;" vertex="1" parent="1">
          <mxGeometry x="160" y="490" width="140" height="80" as="geometry" />
        </mxCell>
        <mxCell id="R2a6Gr0WO1WaGBbOqRlQ-13" value="&lt;font face=&quot;Times New Roman&quot; color=&quot;#ffffff&quot;&gt;&lt;span style=&quot;font-size: 14px;&quot;&gt;&lt;b&gt;Raspberry Pi&lt;/b&gt;&lt;/span&gt;&lt;/font&gt;&lt;div&gt;&lt;font face=&quot;Times New Roman&quot; color=&quot;#ffffff&quot;&gt;&lt;span style=&quot;font-size: 14px;&quot;&gt;&lt;b&gt;Pico W&lt;/b&gt;&lt;/span&gt;&lt;/font&gt;&lt;/div&gt;" style="rounded=1;whiteSpace=wrap;html=1;shadow=1;opacity=50;fillColor=#000000;strokeColor=#FFFFFF;strokeWidth=2;" vertex="1" parent="1">
          <mxGeometry x="340" y="490" width="140" height="80" as="geometry" />
        </mxCell>
        <mxCell id="R2a6Gr0WO1WaGBbOqRlQ-14" value="&lt;font face=&quot;Times New Roman&quot; color=&quot;#ffffff&quot;&gt;&lt;span style=&quot;font-size: 14px;&quot;&gt;&lt;b&gt;Display LCD&lt;/b&gt;&lt;/span&gt;&lt;/font&gt;" style="rounded=1;whiteSpace=wrap;html=1;shadow=1;opacity=50;fillColor=#000000;strokeColor=#FFFFFF;strokeWidth=2;" vertex="1" parent="1">
          <mxGeometry x="520" y="490" width="140" height="80" as="geometry" />
        </mxCell>
        <mxCell id="R2a6Gr0WO1WaGBbOqRlQ-65" style="edgeStyle=orthogonalEdgeStyle;rounded=0;orthogonalLoop=1;jettySize=auto;html=1;exitX=0.5;exitY=1;exitDx=0;exitDy=0;entryX=0.5;entryY=0;entryDx=0;entryDy=0;" edge="1" parent="1" source="R2a6Gr0WO1WaGBbOqRlQ-15" target="R2a6Gr0WO1WaGBbOqRlQ-16">
          <mxGeometry relative="1" as="geometry" />
        </mxCell>
        <mxCell id="R2a6Gr0WO1WaGBbOqRlQ-15" value="&lt;font style=&quot;font-size: 14px; color: rgb(255, 255, 255);&quot; face=&quot;Times New Roman&quot;&gt;&lt;b&gt;Atualizar Banco&lt;/b&gt;&lt;/font&gt;&lt;div&gt;&lt;font style=&quot;font-size: 14px; color: rgb(255, 255, 255);&quot; face=&quot;Times New Roman&quot;&gt;&lt;b&gt;de Dados&lt;/b&gt;&lt;/font&gt;&lt;/div&gt;" style="rounded=1;whiteSpace=wrap;html=1;shadow=1;fillColor=light-dark(#0d0c0d, #392f3f);strokeColor=#FFFFFF;glass=0;fillStyle=auto;opacity=50;strokeWidth=2;shadowOpacity=25;" vertex="1" parent="1">
          <mxGeometry x="600" y="70" width="140" height="80" as="geometry" />
        </mxCell>
        <mxCell id="R2a6Gr0WO1WaGBbOqRlQ-35" value="" style="edgeStyle=orthogonalEdgeStyle;rounded=0;orthogonalLoop=1;jettySize=auto;html=1;entryX=0.429;entryY=0.032;entryDx=0;entryDy=0;entryPerimeter=0;flowAnimation=0;exitX=0;exitY=0.5;exitDx=0;exitDy=0;" edge="1" parent="1" source="R2a6Gr0WO1WaGBbOqRlQ-16" target="R2a6Gr0WO1WaGBbOqRlQ-14">
          <mxGeometry relative="1" as="geometry">
            <mxPoint x="630.0588235294117" y="300" as="sourcePoint" />
            <Array as="points">
              <mxPoint x="580" y="290" />
            </Array>
          </mxGeometry>
        </mxCell>
        <mxCell id="R2a6Gr0WO1WaGBbOqRlQ-36" value="&lt;font face=&quot;Times New Roman&quot; style=&quot;font-size: 12px;&quot;&gt;&lt;b&gt;Atualizar&lt;/b&gt;&lt;/font&gt;&lt;div&gt;&lt;font face=&quot;Times New Roman&quot; style=&quot;font-size: 12px;&quot;&gt;&lt;b&gt;Exebição&lt;/b&gt;&lt;/font&gt;&lt;/div&gt;" style="edgeLabel;html=1;align=center;verticalAlign=middle;resizable=0;points=[];" vertex="1" connectable="0" parent="R2a6Gr0WO1WaGBbOqRlQ-35">
          <mxGeometry x="0.1175" y="-1" relative="1" as="geometry">
            <mxPoint y="-15" as="offset" />
          </mxGeometry>
        </mxCell>
        <mxCell id="R2a6Gr0WO1WaGBbOqRlQ-16" value="&lt;font style=&quot;font-size: 14px; color: rgb(255, 255, 255);&quot; face=&quot;Times New Roman&quot;&gt;&lt;b&gt;Exibir&lt;/b&gt;&lt;/font&gt;&lt;div&gt;&lt;font style=&quot;font-size: 14px; color: rgb(255, 255, 255);&quot; face=&quot;Times New Roman&quot;&gt;&lt;b&gt;Informações&lt;/b&gt;&lt;/font&gt;&lt;/div&gt;" style="rounded=1;whiteSpace=wrap;html=1;shadow=1;fillColor=light-dark(#0d0c0d, #392f3f);strokeColor=#FFFFFF;glass=0;fillStyle=auto;opacity=50;strokeWidth=2;shadowOpacity=25;" vertex="1" parent="1">
          <mxGeometry x="600" y="250" width="140" height="80" as="geometry" />
        </mxCell>
        <mxCell id="R2a6Gr0WO1WaGBbOqRlQ-17" value="&lt;font face=&quot;Times New Roman&quot; color=&quot;#ffffff&quot;&gt;&lt;span style=&quot;font-size: 14px;&quot;&gt;&lt;b&gt;Verificar&lt;/b&gt;&lt;/span&gt;&lt;/font&gt;&lt;div&gt;&lt;font face=&quot;Times New Roman&quot; color=&quot;#ffffff&quot;&gt;&lt;span style=&quot;font-size: 14px;&quot;&gt;&lt;b&gt;Credenciais&lt;/b&gt;&lt;/span&gt;&lt;/font&gt;&lt;/div&gt;" style="rhombus;whiteSpace=wrap;html=1;rounded=1;arcSize=24;shadow=1;opacity=50;fillColor=#000000;strokeColor=#FFFFFF;strokeWidth=2;" vertex="1" parent="1">
          <mxGeometry x="254" y="720" width="160" height="100" as="geometry" />
        </mxCell>
        <mxCell id="R2a6Gr0WO1WaGBbOqRlQ-18" value="&lt;font face=&quot;Times New Roman&quot; color=&quot;#ffffff&quot;&gt;&lt;span style=&quot;font-size: 14px;&quot;&gt;&lt;b&gt;Acessar&amp;nbsp;&lt;/b&gt;&lt;/span&gt;&lt;/font&gt;&lt;div&gt;&lt;font face=&quot;Times New Roman&quot; color=&quot;#ffffff&quot;&gt;&lt;span style=&quot;font-size: 14px;&quot;&gt;&lt;b&gt;Sistema&lt;/b&gt;&lt;/span&gt;&lt;/font&gt;&lt;/div&gt;" style="rounded=1;whiteSpace=wrap;html=1;shadow=1;opacity=50;fillColor=#000000;strokeColor=#FFFFFF;strokeWidth=2;" vertex="1" parent="1">
          <mxGeometry x="10" y="750" width="140" height="80" as="geometry" />
        </mxCell>
        <mxCell id="R2a6Gr0WO1WaGBbOqRlQ-50" value="" style="edgeStyle=orthogonalEdgeStyle;rounded=0;orthogonalLoop=1;jettySize=auto;html=1;entryX=0.75;entryY=1;entryDx=0;entryDy=0;" edge="1" parent="1" source="R2a6Gr0WO1WaGBbOqRlQ-19" target="R2a6Gr0WO1WaGBbOqRlQ-12">
          <mxGeometry relative="1" as="geometry" />
        </mxCell>
        <mxCell id="R2a6Gr0WO1WaGBbOqRlQ-52" value="&lt;b&gt;&lt;font style=&quot;font-size: 12px;&quot; face=&quot;Times New Roman&quot;&gt;Dados de&lt;/font&gt;&lt;/b&gt;&lt;div&gt;&lt;b&gt;&lt;font style=&quot;font-size: 12px;&quot; face=&quot;Times New Roman&quot;&gt;Presença&lt;/font&gt;&lt;/b&gt;&lt;/div&gt;" style="edgeLabel;html=1;align=center;verticalAlign=middle;resizable=0;points=[];" vertex="1" connectable="0" parent="R2a6Gr0WO1WaGBbOqRlQ-50">
          <mxGeometry x="0.4552" y="1" relative="1" as="geometry">
            <mxPoint y="1" as="offset" />
          </mxGeometry>
        </mxCell>
        <mxCell id="R2a6Gr0WO1WaGBbOqRlQ-19" value="&lt;font face=&quot;Times New Roman&quot; color=&quot;#ffffff&quot;&gt;&lt;span style=&quot;font-size: 14px;&quot;&gt;&lt;b&gt;Enviar Dados&lt;/b&gt;&lt;/span&gt;&lt;/font&gt;" style="rounded=1;whiteSpace=wrap;html=1;shadow=1;opacity=50;fillColor=#000000;strokeColor=#FFFFFF;strokeWidth=2;" vertex="1" parent="1">
          <mxGeometry x="480" y="670" width="140" height="80" as="geometry" />
        </mxCell>
        <mxCell id="R2a6Gr0WO1WaGBbOqRlQ-59" style="edgeStyle=orthogonalEdgeStyle;rounded=0;orthogonalLoop=1;jettySize=auto;html=1;exitX=0.5;exitY=1;exitDx=0;exitDy=0;exitPerimeter=0;entryX=0.5;entryY=0;entryDx=0;entryDy=0;" edge="1" parent="1" source="R2a6Gr0WO1WaGBbOqRlQ-21" target="R2a6Gr0WO1WaGBbOqRlQ-23">
          <mxGeometry relative="1" as="geometry" />
        </mxCell>
        <mxCell id="R2a6Gr0WO1WaGBbOqRlQ-21" value="&lt;p&gt;&lt;font style=&quot;font-size: 14px;&quot; face=&quot;Times New Roman&quot;&gt;&lt;font style=&quot;color: rgb(255, 255, 255);&quot;&gt;&lt;b style=&quot;&quot;&gt;Acesso&lt;br&gt;&lt;/b&gt;&lt;/font&gt;&lt;font style=&quot;color: rgb(255, 255, 255);&quot;&gt;&lt;b style=&quot;&quot;&gt;Permitido&lt;/b&gt;&lt;/font&gt;&lt;/font&gt;&lt;/p&gt;" style="strokeWidth=2;html=1;shape=mxgraph.flowchart.terminator;whiteSpace=wrap;shadow=1;opacity=50;strokeColor=#FFFFFF;fillColor=#000000;align=center;" vertex="1" parent="1">
          <mxGeometry x="490" y="830" width="135" height="80" as="geometry" />
        </mxCell>
        <mxCell id="R2a6Gr0WO1WaGBbOqRlQ-22" value="&lt;div&gt;&lt;font style=&quot;color: rgb(255, 255, 255); font-size: 14px;&quot; face=&quot;Times New Roman&quot;&gt;&lt;b style=&quot;&quot;&gt;Acesso Negado&lt;/b&gt;&lt;/font&gt;&lt;/div&gt;" style="strokeWidth=2;html=1;shape=mxgraph.flowchart.terminator;whiteSpace=wrap;shadow=1;opacity=50;strokeColor=#FFFFFF;fillColor=#000000;" vertex="1" parent="1">
          <mxGeometry x="40" y="910" width="135" height="80" as="geometry" />
        </mxCell>
        <mxCell id="R2a6Gr0WO1WaGBbOqRlQ-61" style="edgeStyle=orthogonalEdgeStyle;rounded=0;orthogonalLoop=1;jettySize=auto;html=1;exitX=0;exitY=0.5;exitDx=0;exitDy=0;entryX=1;entryY=0.5;entryDx=0;entryDy=0;" edge="1" parent="1" source="R2a6Gr0WO1WaGBbOqRlQ-23" target="R2a6Gr0WO1WaGBbOqRlQ-24">
          <mxGeometry relative="1" as="geometry" />
        </mxCell>
        <mxCell id="R2a6Gr0WO1WaGBbOqRlQ-23" value="&lt;p&gt;&lt;font face=&quot;Times New Roman&quot;&gt;&lt;font color=&quot;#ffffff&quot;&gt;&lt;span style=&quot;font-size: 14px;&quot;&gt;&lt;b style=&quot;&quot;&gt;Administrar&lt;br&gt;&lt;/b&gt;&lt;/span&gt;&lt;/font&gt;&lt;font color=&quot;#ffffff&quot;&gt;&lt;span style=&quot;font-size: 14px;&quot;&gt;&lt;b style=&quot;&quot;&gt;Sistema&lt;/b&gt;&lt;/span&gt;&lt;/font&gt;&lt;/font&gt;&lt;/p&gt;" style="rounded=1;whiteSpace=wrap;html=1;shadow=1;opacity=50;fillColor=#000000;strokeColor=#FFFFFF;strokeWidth=2;align=center;" vertex="1" parent="1">
          <mxGeometry x="487.5" y="940" width="140" height="80" as="geometry" />
        </mxCell>
        <mxCell id="R2a6Gr0WO1WaGBbOqRlQ-63" style="edgeStyle=orthogonalEdgeStyle;rounded=0;orthogonalLoop=1;jettySize=auto;html=1;exitX=0;exitY=0.75;exitDx=0;exitDy=0;entryX=0.25;entryY=1;entryDx=0;entryDy=0;" edge="1" parent="1" source="R2a6Gr0WO1WaGBbOqRlQ-24" target="R2a6Gr0WO1WaGBbOqRlQ-12">
          <mxGeometry relative="1" as="geometry" />
        </mxCell>
        <mxCell id="R2a6Gr0WO1WaGBbOqRlQ-64" value="&lt;b&gt;&lt;font style=&quot;font-size: 12px;&quot; face=&quot;Times New Roman&quot;&gt;Salvar&amp;nbsp;&lt;/font&gt;&lt;/b&gt;&lt;div&gt;&lt;b&gt;&lt;font style=&quot;font-size: 12px;&quot; face=&quot;Times New Roman&quot;&gt;Alterações&lt;/font&gt;&lt;/b&gt;&lt;/div&gt;" style="edgeLabel;html=1;align=center;verticalAlign=middle;resizable=0;points=[];" vertex="1" connectable="0" parent="R2a6Gr0WO1WaGBbOqRlQ-63">
          <mxGeometry x="-0.1104" y="-3" relative="1" as="geometry">
            <mxPoint y="-3" as="offset" />
          </mxGeometry>
        </mxCell>
        <mxCell id="R2a6Gr0WO1WaGBbOqRlQ-24" value="&lt;p&gt;&lt;font face=&quot;Times New Roman&quot; color=&quot;#ffffff&quot;&gt;&lt;span style=&quot;font-size: 14px;&quot;&gt;&lt;b&gt;Atualizar&lt;/b&gt;&lt;/span&gt;&lt;/font&gt;&lt;/p&gt;&lt;p&gt;&lt;font face=&quot;Times New Roman&quot; color=&quot;#ffffff&quot;&gt;&lt;span style=&quot;font-size: 14px;&quot;&gt;&lt;b&gt;Configurações&lt;/b&gt;&lt;/span&gt;&lt;/font&gt;&lt;/p&gt;" style="rounded=1;whiteSpace=wrap;html=1;shadow=1;opacity=50;fillColor=#000000;strokeColor=#FFFFFF;strokeWidth=2;align=center;" vertex="1" parent="1">
          <mxGeometry x="310" y="940" width="140" height="80" as="geometry" />
        </mxCell>
        <mxCell id="R2a6Gr0WO1WaGBbOqRlQ-25" value="&lt;p&gt;&lt;font face=&quot;Times New Roman&quot; color=&quot;#ffffff&quot;&gt;&lt;span style=&quot;font-size: 14px;&quot;&gt;&lt;b&gt;Fim do&lt;/b&gt;&lt;/span&gt;&lt;/font&gt;&lt;/p&gt;&lt;p&gt;&lt;font face=&quot;Times New Roman&quot; color=&quot;#ffffff&quot;&gt;&lt;span style=&quot;font-size: 14px;&quot;&gt;&lt;b&gt;Processo&lt;/b&gt;&lt;/span&gt;&lt;/font&gt;&lt;/p&gt;" style="strokeWidth=2;html=1;shape=mxgraph.flowchart.terminator;whiteSpace=wrap;shadow=1;opacity=50;strokeColor=#FFFFFF;fillColor=#000000;align=center;" vertex="1" parent="1">
          <mxGeometry x="312.5" y="1050" width="135" height="80" as="geometry" />
        </mxCell>
        <mxCell id="R2a6Gr0WO1WaGBbOqRlQ-27" value="" style="endArrow=classic;html=1;rounded=0;entryX=0.5;entryY=0;entryDx=0;entryDy=0;exitX=0;exitY=0.5;exitDx=0;exitDy=0;" edge="1" parent="1" source="R2a6Gr0WO1WaGBbOqRlQ-5" target="R2a6Gr0WO1WaGBbOqRlQ-18">
          <mxGeometry width="50" height="50" relative="1" as="geometry">
            <mxPoint x="110" y="170" as="sourcePoint" />
            <mxPoint x="80" y="590" as="targetPoint" />
            <Array as="points">
              <mxPoint x="80" y="150" />
            </Array>
          </mxGeometry>
        </mxCell>
        <mxCell id="R2a6Gr0WO1WaGBbOqRlQ-29" value="" style="endArrow=classic;html=1;rounded=0;exitX=0.5;exitY=1;exitDx=0;exitDy=0;entryX=0.5;entryY=0;entryDx=0;entryDy=0;" edge="1" parent="1" source="R2a6Gr0WO1WaGBbOqRlQ-6" target="R2a6Gr0WO1WaGBbOqRlQ-8">
          <mxGeometry width="50" height="50" relative="1" as="geometry">
            <mxPoint x="300" y="460" as="sourcePoint" />
            <mxPoint x="350" y="410" as="targetPoint" />
          </mxGeometry>
        </mxCell>
        <mxCell id="R2a6Gr0WO1WaGBbOqRlQ-41" value="" style="endArrow=classic;html=1;rounded=0;exitX=0.75;exitY=1;exitDx=0;exitDy=0;entryX=1;entryY=0.5;entryDx=0;entryDy=0;entryPerimeter=0;" edge="1" parent="1" source="R2a6Gr0WO1WaGBbOqRlQ-16" target="R2a6Gr0WO1WaGBbOqRlQ-25">
          <mxGeometry width="50" height="50" relative="1" as="geometry">
            <mxPoint x="670" y="850" as="sourcePoint" />
            <mxPoint x="710" y="810" as="targetPoint" />
            <Array as="points">
              <mxPoint x="705" y="1090" />
            </Array>
          </mxGeometry>
        </mxCell>
        <mxCell id="R2a6Gr0WO1WaGBbOqRlQ-42" value="" style="endArrow=classic;html=1;rounded=0;exitX=0.75;exitY=1;exitDx=0;exitDy=0;entryX=0;entryY=0.25;entryDx=0;entryDy=0;" edge="1" parent="1" source="R2a6Gr0WO1WaGBbOqRlQ-13" target="R2a6Gr0WO1WaGBbOqRlQ-19">
          <mxGeometry width="50" height="50" relative="1" as="geometry">
            <mxPoint x="530" y="710" as="sourcePoint" />
            <mxPoint x="410" y="660" as="targetPoint" />
            <Array as="points">
              <mxPoint x="445" y="690" />
            </Array>
          </mxGeometry>
        </mxCell>
        <mxCell id="R2a6Gr0WO1WaGBbOqRlQ-43" value="" style="endArrow=classic;html=1;rounded=0;exitX=0.75;exitY=0;exitDx=0;exitDy=0;entryX=0;entryY=0.25;entryDx=0;entryDy=0;" edge="1" parent="1" source="R2a6Gr0WO1WaGBbOqRlQ-18" target="R2a6Gr0WO1WaGBbOqRlQ-12">
          <mxGeometry width="50" height="50" relative="1" as="geometry">
            <mxPoint x="350" y="580" as="sourcePoint" />
            <mxPoint x="400" y="530" as="targetPoint" />
            <Array as="points">
              <mxPoint x="115" y="510" />
            </Array>
          </mxGeometry>
        </mxCell>
        <mxCell id="R2a6Gr0WO1WaGBbOqRlQ-44" value="&lt;b&gt;&lt;font face=&quot;Times New Roman&quot; style=&quot;font-size: 12px;&quot;&gt;Login&lt;/font&gt;&lt;/b&gt;" style="edgeLabel;html=1;align=center;verticalAlign=middle;resizable=0;points=[];" vertex="1" connectable="0" parent="R2a6Gr0WO1WaGBbOqRlQ-43">
          <mxGeometry x="-0.3625" y="2" relative="1" as="geometry">
            <mxPoint y="11" as="offset" />
          </mxGeometry>
        </mxCell>
        <mxCell id="R2a6Gr0WO1WaGBbOqRlQ-48" value="" style="endArrow=classic;html=1;rounded=0;exitX=0.5;exitY=1;exitDx=0;exitDy=0;entryX=0;entryY=0.5;entryDx=0;entryDy=0;" edge="1" parent="1" source="R2a6Gr0WO1WaGBbOqRlQ-12" target="R2a6Gr0WO1WaGBbOqRlQ-17">
          <mxGeometry width="50" height="50" relative="1" as="geometry">
            <mxPoint x="350" y="810" as="sourcePoint" />
            <mxPoint x="350" y="710" as="targetPoint" />
            <Array as="points">
              <mxPoint x="230" y="770" />
            </Array>
          </mxGeometry>
        </mxCell>
        <mxCell id="R2a6Gr0WO1WaGBbOqRlQ-54" value="" style="endArrow=classic;html=1;rounded=0;exitX=1;exitY=1;exitDx=0;exitDy=0;entryX=0;entryY=0.5;entryDx=0;entryDy=0;entryPerimeter=0;" edge="1" parent="1" source="R2a6Gr0WO1WaGBbOqRlQ-17" target="R2a6Gr0WO1WaGBbOqRlQ-21">
          <mxGeometry width="50" height="50" relative="1" as="geometry">
            <mxPoint x="350" y="700" as="sourcePoint" />
            <mxPoint x="400" y="650" as="targetPoint" />
            <Array as="points">
              <mxPoint x="374" y="870" />
            </Array>
          </mxGeometry>
        </mxCell>
        <mxCell id="R2a6Gr0WO1WaGBbOqRlQ-57" value="&lt;b&gt;&lt;font style=&quot;font-size: 12px;&quot; face=&quot;Times New Roman&quot;&gt;Valido&lt;/font&gt;&lt;/b&gt;" style="edgeLabel;html=1;align=center;verticalAlign=middle;resizable=0;points=[];" vertex="1" connectable="0" parent="R2a6Gr0WO1WaGBbOqRlQ-54">
          <mxGeometry x="0.2923" y="1" relative="1" as="geometry">
            <mxPoint as="offset" />
          </mxGeometry>
        </mxCell>
        <mxCell id="R2a6Gr0WO1WaGBbOqRlQ-55" value="" style="endArrow=classic;html=1;rounded=0;exitX=0;exitY=1;exitDx=0;exitDy=0;entryX=1;entryY=0.5;entryDx=0;entryDy=0;entryPerimeter=0;" edge="1" parent="1" source="R2a6Gr0WO1WaGBbOqRlQ-17" target="R2a6Gr0WO1WaGBbOqRlQ-22">
          <mxGeometry width="50" height="50" relative="1" as="geometry">
            <mxPoint x="350" y="700" as="sourcePoint" />
            <mxPoint x="400" y="650" as="targetPoint" />
            <Array as="points">
              <mxPoint x="294" y="950" />
            </Array>
          </mxGeometry>
        </mxCell>
        <mxCell id="R2a6Gr0WO1WaGBbOqRlQ-56" value="&lt;b&gt;&lt;font face=&quot;Times New Roman&quot; style=&quot;font-size: 12px;&quot;&gt;Invalido&lt;/font&gt;&lt;/b&gt;" style="edgeLabel;html=1;align=center;verticalAlign=middle;resizable=0;points=[];" vertex="1" connectable="0" parent="R2a6Gr0WO1WaGBbOqRlQ-55">
          <mxGeometry x="-0.4428" y="1" relative="1" as="geometry">
            <mxPoint as="offset" />
          </mxGeometry>
        </mxCell>
        <mxCell id="R2a6Gr0WO1WaGBbOqRlQ-60" style="edgeStyle=orthogonalEdgeStyle;rounded=0;orthogonalLoop=1;jettySize=auto;html=1;exitX=0.5;exitY=1;exitDx=0;exitDy=0;exitPerimeter=0;entryX=0;entryY=0.5;entryDx=0;entryDy=0;entryPerimeter=0;" edge="1" parent="1" source="R2a6Gr0WO1WaGBbOqRlQ-22" target="R2a6Gr0WO1WaGBbOqRlQ-25">
          <mxGeometry relative="1" as="geometry" />
        </mxCell>
        <mxCell id="R2a6Gr0WO1WaGBbOqRlQ-62" style="edgeStyle=orthogonalEdgeStyle;rounded=0;orthogonalLoop=1;jettySize=auto;html=1;exitX=0.5;exitY=1;exitDx=0;exitDy=0;entryX=0.5;entryY=0;entryDx=0;entryDy=0;entryPerimeter=0;" edge="1" parent="1" source="R2a6Gr0WO1WaGBbOqRlQ-24" target="R2a6Gr0WO1WaGBbOqRlQ-25">
          <mxGeometry relative="1" as="geometry" />
        </mxCell>
        <mxCell id="R2a6Gr0WO1WaGBbOqRlQ-66" style="edgeStyle=orthogonalEdgeStyle;rounded=0;orthogonalLoop=1;jettySize=auto;html=1;exitX=0.5;exitY=1;exitDx=0;exitDy=0;entryX=0.5;entryY=0;entryDx=0;entryDy=0;" edge="1" parent="1" source="R2a6Gr0WO1WaGBbOqRlQ-8" target="R2a6Gr0WO1WaGBbOqRlQ-13">
          <mxGeometry relative="1" as="geometry" />
        </mxCell>
        <mxCell id="R2a6Gr0WO1WaGBbOqRlQ-67" value="&lt;font style=&quot;font-size: 12px;&quot; face=&quot;Times New Roman&quot;&gt;&lt;b&gt;Presença&lt;/b&gt;&lt;/font&gt;&lt;div&gt;&lt;font style=&quot;font-size: 12px;&quot; face=&quot;Times New Roman&quot;&gt;&lt;b&gt;Detectada&lt;/b&gt;&lt;/font&gt;&lt;/div&gt;" style="edgeLabel;html=1;align=center;verticalAlign=middle;resizable=0;points=[];" vertex="1" connectable="0" parent="R2a6Gr0WO1WaGBbOqRlQ-66">
          <mxGeometry x="-0.3773" y="-2" relative="1" as="geometry">
            <mxPoint x="2" y="-7" as="offset" />
          </mxGeometry>
        </mxCell>
      </root>
    </mxGraphModel>
  </diagram>
</mxfile>
